<svg xmlns="http://www.w3.org/2000/svg" width="383" height="118">
  <path d="M273 31c3.023 4.565 3.243 7.738 2.688 13.098-.56 6.337-.785 12.599-.75 18.96l.01 2.576q.02 3.901.052 7.804.039 5.247.063 10.496l.025 2.417c.008 1.883-.035 3.767-.088 5.649-1.642 1.642-3.492 1.288-5.75 1.375-3.627-.062-4.898-.13-7.937-2.25L259 88l-1.5-1.96c-3.96-5.372-7.4-11.062-10.812-16.79l-1.312-2.185C243.067 63.131 241.258 59.421 240 55h-2q.213 5.907.438 11.813l.119 3.333c.24 6.284.652 12.476 1.44 18.716L240 91c-2 2-2 2-4.059 2.117l-2.379-.242-2.37-.195c-2.978-.924-3.648-1.983-5.192-4.68-.233-3.134-.233-3.134-.04-6.836l.09-2.024q.094-2.146.208-4.293c.196-3.727.345-7.457.488-11.187l.087-2.244c.256-7.39-.044-14.72-.603-22.091-.146-2.105-.198-4.216-.23-6.325 2.48-2.48 3.442-2.35 6.875-2.437l2.617-.122c3.714.828 4.455 2.36 6.508 5.559 1.829 3.412 3.51 6.887 5.188 10.375C251.683 55.565 256.604 64.317 262 73l1 2q.037-6.052.055-12.103.008-2.05.02-4.099c.057-8.987-.228-17.85-1.075-26.798 4.035-2.27 6.482-2.314 11-1" fill="#F7EBF3"/>
  <path d="M211 30c2.813 1.5 2.813 1.5 5 4 1.144 4.578 1.005 8.392.508 13.05-.778 8.868-.578 17.745-.508 26.638q.039 5.16.063 10.324l.025 2.389A171 171 0 0 1 216 92c-1.854 1.854-4.425 1.235-6.895 1.328-2.825-.44-4.05-1.346-6.105-3.328-.454-2.544-.454-2.544-.39-5.543l.038-3.252.102-3.392.055-3.428c.047-2.796.119-5.59.195-8.385h-23l.324 5.398q.183 3.488.363 6.977l.221 3.563.166 3.398.175 3.142L181 91c-3.144 2.096-3.521 2.267-7 1.813l-2.062-.231c-2.475-.743-3.355-1.536-4.938-3.582-.367-2.518-.367-2.518-.356-5.557l-.01-3.448.038-3.722.006-3.813q.009-3.993.04-7.984c.03-3.418.04-6.836.044-10.254q.01-4.88.035-9.761l.013-3.734.029-3.429.02-3.034C167 32 167 32 168 31c1.926-.238 1.926-.238 4.313-.312l2.363-.114c3.318.608 4.386 1.681 6.324 4.426.426 3.496.426 3.496.313 7.438l-.075 3.933C181 50 181 50 180 55h24c-.775-7.107-.775-7.107-1.587-14.21l-.268-2.685-.302-2.745C202 33 202 33 203.311 31.208c2.655-1.899 4.512-1.653 7.689-1.208" fill="#F7ECF3"/>
  <path d="M99 33c6.979 4.79 9.746 11.045 12 19 .95 10.452.657 20.437-5.613 29.273-1.705 2.034-3.474 3.89-5.387 5.727l-1.54 1.531c-5.487 5.048-11.655 5.915-18.843 5.707-6.59-.6-11.835-1.885-16.492-6.8-6.452-8.339-8.724-17.797-7.906-28.227C56.725 48.924 60.953 40.64 69 34c8.378-5.845 21.252-6.285 30-1m-26.062 7.875c-4.334 6.99-5.21 13.722-5.313 21.813l-.042 2.159C67.653 72.693 70.544 78.41 76 84c1.806 1.015 1.806 1.015 4 1l3.938.25c3.88-.093 6.077-.588 9.062-3.25 3.245-4.688 5.654-9.24 6-15l.152-2.496C99.463 55.532 97.724 48.112 92 41c-5.537-3.568-13.556-3.496-19.062-.125" fill="#F6EAF2"/>
  <path d="M42.063 34.5C45.84 39.375 45.716 43.983 45 50c-2.205 5.664-6.12 9.53-11 13h-2c4.603 9.164 9.643 16.413 19 21l2 1c-.484 5.563-.484 5.563-2.625 7.375-3.643.959-5.563 1.301-9.375.625-10.131-6.922-18.773-18.41-21.875-30.375L19 60c2-2 2-2 5.438-2.937C28.39 55.894 28.39 55.894 31 53c1.185-3.554 1.266-6.27 1-10-1.095-1.814-1.095-1.814-3-3-2.707-.4-2.707-.4-5.625-.25-.982.015-1.965.03-2.977.047-2.35-.06-2.35-.06-3.398 1.203a79 79 0 0 0-.114 4.795v3.094l.016 3.365.005 3.426c.005 3.627.018 7.255.03 10.883q.009 3.678.014 7.357.017 9.04.049 18.08c-2.853 1.427-4.835 1.31-8 1-2.67-1.416-2.67-1.416-5-4-.691-3.226-.558-6.38-.453-9.664l.029-2.87c.034-3.032.103-6.06.174-9.091q.074-4.513.132-9.026.039-2.805.103-5.61c.1-5.322-.176-10.442-.861-15.724C3 35 3 35 4 33c11.196-3.399 28.321-6.452 38.063 1.5" fill="#F6E8F1"/>
  <path d="M154 33c2.948 2.568 2.997 3.974 3.438 7.938-.132 3.057-.52 4.21-2.063 7-2.819 2.448-4.696 2.811-8.375 3.062q-.755-2.186-1.5-4.375l-.844-2.46C144 42 144 42 144 40c-5.565-1.075-5.565-1.075-11 0-2.32 1.95-2.32 1.95-2.687 5.438.35 3.64.35 3.64 2.875 5.687 3.23 1.818 6.707 2.939 10.187 4.188 6.53 2.417 12.14 5.552 15.813 11.664 1.844 4.592 1.104 8.982-.188 13.585-3.899 6.701-9.295 10.94-16.781 13.004-6.851 1.34-12.897.462-19.219-2.566-3.583-2.897-5.923-5.477-7-10 .135-3.847.48-6.22 2.625-9.437 3.214-2.115 5.61-1.853 9.375-1.563l.375 2.625c.613 3.309 1.35 6.26 2.625 9.375 3.122 2.081 3.933 2.274 7.5 2.25l2.344.016c2.451-.139 2.451-.139 5.156-2.266 1.097-4.552 1.097-4.552.293-9.07-1.64-2.449-3.133-3.184-5.793-4.43l-2.7-1.277c-2.68-1.17-5.38-2.241-8.113-3.285-4.438-1.735-8.208-3.535-10.789-7.727-1.73-4.257-1.403-8.708-.898-13.211 2.535-5.841 7.526-9.041 13-12 7.408-2.52 16.31-1.986 23 2" fill="#F6E9F2"/>
  <path d="M345.313 48.688c3.02.067 4.522.228 7.25 1.624 2.37 4.433 1.747 8.766 1.437 13.688l-.238 3.914c-.165 2.602-.35 5.2-.543 7.8A110 110 0 0 0 353 83c2.76 0 4.475-.522 6.527-2.39 6.722-8.142 9.071-18.178 8.516-28.563L368 50c1.873-1.873 4.498-1.236 6.992-1.328 2.657.434 3.37 1.208 5.008 3.328.404 2.442.404 2.442.434 5.348l.034 3.248-.03 3.467-.021 3.54c-.25 13.655-1.71 29.893-11.304 40.479-4.288 4.01-8.238 7-14.343 6.871-4.012-.34-7.293-.81-10.77-2.953-2.454-3.68-2.697-6.724-2-11 1.688-2.5 1.688-2.5 4-4 2.75-.25 2.75-.25 5 0l3 8c2.33.419 2.33.419 5 0 6.3-5.929 7.578-14.838 9-23l-1.426 1.68-1.887 2.195-1.863 2.18c-2.3 2.452-4.013 3.827-7.383 4.316-7.831.18-7.831.18-11.066-2.746-2.07-3.952-2.534-6.195-2.656-10.7l-.114-3.712-.105-3.9q-.104-3.787-.219-7.575l-.092-3.405c-.143-3.432-.143-3.432-.77-7.192L340 50c1.57-1.57 3.141-1.245 5.313-1.312" fill="#F6E8F1"/>
  <path d="M342.5 28.813C345 31 345 31 347 34c-.22 6.135-.22 6.135-2.75 8.938-2.604 1.23-4.403 1.3-7.25 1.062l-1.25-3.437c-1.322-3.57-1.322-3.57-3.625-4.563-2.628-.07-2.628-.07-7.125 1l-3 14 3.246-.473 4.192-.59 2.142-.314c1.801-.25 3.61-.441 5.42-.623 1 1 1 1 1.063 4.563L338 57c-4.268 2.27-6.916 3.262-11.754 2.59l-2.42-.32L322 59l.02 1.764q.097 9.075.145 18.152.022 3.388.061 6.777c.037 3.244.054 6.488.067 9.733.015 1.012.03 2.025.047 3.068v2.851l.02 2.51c-.445 2.65-1.251 3.529-3.36 5.145-2.759.45-5.18.182-8 0l-1-1c.097-2.572.253-5.121.438-7.687.582-9.168.65-18.319.625-27.5l-.006-2.073Q311.038 64.87 311 59h-7c-.75-2.25-.75-2.25-1-5 1.688-2.312 1.688-2.312 4-4h4l.191-1.871C312.232 40.93 314.662 36.002 320 31c6.827-4.69 15.049-6.046 22.5-2.187" fill="#F5E5EF"/>
  <path d="M286 27h12c1.867 7.47 1.096 15.177.492 22.8-.6 8.7-.57 17.36-.492 26.075q.039 4.56.063 9.117l.025 2.096A130 130 0 0 1 298 92c-1 1-1 1-4.75 1.375-3.203-.086-4.34-.426-7.25-2.062-4.904-8.123-1.728-21.272-1-30.438.848-11.321 1.254-22.527 1-33.875" fill="#F9EEF5"/>
</svg>
